<?xml version="1.0" standalone="no"?>
<!DOCTYPE svg PUBLIC "-//W3C//DTD SVG 20010904//EN"
 "http://www.w3.org/TR/2001/REC-SVG-20010904/DTD/svg10.dtd">
<svg version="1.0" xmlns="http://www.w3.org/2000/svg"
 width="508.000000pt" height="442.000000pt" viewBox="0 0 508.000000 442.000000"
 preserveAspectRatio="xMidYMid meet">

<g transform="translate(0.000000,442.000000) scale(0.100000,-0.100000)"
fill="#000000" stroke="none">
<path d="M1160 3845 c-75 -13 -118 -25 -175 -51 -16 -7 -41 -18 -55 -24 -94
-38 -245 -174 -313 -281 -39 -63 -87 -162 -87 -181 0 -8 -5 -19 -11 -25 -27
-27 -32 -147 -36 -833 -3 -612 -1 -717 12 -800 9 -52 21 -99 26 -104 5 -6 9
-17 9 -25 0 -19 65 -149 86 -172 8 -8 14 -20 14 -26 0 -18 151 -167 198 -197
66 -41 170 -96 183 -96 6 0 25 -6 42 -14 78 -35 158 -40 682 -46 l520 -5 142
-284 c78 -156 148 -288 155 -292 37 -24 108 11 108 53 0 9 7 21 15 28 8 7 15
17 15 24 0 6 45 102 100 212 55 111 100 206 100 211 0 5 10 19 23 31 23 21 27
21 527 25 511 3 602 9 677 43 17 8 36 14 43 14 18 0 110 44 110 52 0 5 6 8 14
8 23 0 157 111 206 171 25 30 47 56 51 59 11 9 79 131 79 141 0 6 6 23 14 37
51 95 50 73 53 880 2 454 0 772 -6 800 -35 174 -106 311 -225 436 -73 77 -231
177 -321 203 -151 43 -143 43 -1555 41 -1026 0 -1363 -4 -1420 -13z m855 -851
c95 -45 156 -122 199 -249 14 -44 16 -99 14 -440 l-3 -390 -120 0 -120 0 -5
365 c-6 365 -6 366 -31 410 -13 25 -41 56 -62 69 l-37 24 0 112 c0 61 3 115 7
118 16 17 105 6 158 -19z m-827 -184 c1 -102 4 -191 7 -198 4 -10 15 -6 43 15
38 30 130 63 173 63 28 0 138 -33 171 -52 36 -21 108 -90 132 -128 84 -133 82
-326 -3 -450 -61 -88 -110 -125 -214 -160 -69 -23 -157 -24 -181 0 -5 5 -17
10 -26 10 -8 0 -32 16 -53 36 -37 37 -42 36 -49 -11 -3 -19 -11 -20 -128 -20
l-125 0 -3 530 c-1 292 0 536 3 543 3 9 35 12 127 10 l123 -3 3 -185z m1787
-136 c70 -23 68 -22 90 -36 98 -62 159 -142 194 -252 26 -87 26 -115 -1 -202
-61 -196 -207 -299 -423 -297 -105 0 -175 20 -252 70 -48 32 -123 111 -123
130 0 5 -5 14 -11 20 -23 23 -49 118 -49 178 0 58 20 133 54 201 19 37 110
132 139 145 12 5 29 13 37 18 72 42 253 55 345 25z m857 -5 c29 -7 67 -22 84
-35 39 -30 57 -30 69 -1 9 21 17 22 122 25 110 3 113 2 118 -20 12 -46 1 -832
-12 -853 -6 -11 -22 -42 -34 -70 -27 -62 -107 -140 -175 -171 -41 -19 -72 -24
-150 -26 l-99 -3 -3 111 c-3 125 -4 124 78 124 74 0 140 75 140 158 0 51 -12
59 -48 33 -91 -64 -224 -67 -341 -6 -41 21 -115 97 -143 147 -13 24 -29 79
-37 123 -40 247 118 451 366 474 7 0 36 -4 65 -10z"/>
<path d="M1304 2441 c-71 -14 -114 -73 -114 -156 0 -56 3 -65 35 -102 77 -90
214 -74 267 32 28 55 28 78 4 130 -28 61 -49 80 -101 94 -43 12 -44 12 -91 2z"/>
<path d="M2779 2438 c-143 -38 -130 -276 16 -304 67 -12 120 3 159 47 34 37
36 43 36 107 0 61 -3 70 -33 105 -43 51 -101 66 -178 45z"/>
<path d="M3755 2437 c-17 -8 -43 -29 -58 -46 -24 -29 -27 -41 -27 -102 0 -65
2 -71 35 -108 40 -44 84 -57 159 -46 89 14 138 100 115 202 -17 76 -50 104
-131 109 -41 3 -74 0 -93 -9z"/>
</g>
</svg>
