<?xml version="1.0" standalone="no"?>
<!DOCTYPE svg PUBLIC "-//W3C//DTD SVG 20010904//EN"
 "http://www.w3.org/TR/2001/REC-SVG-20010904/DTD/svg10.dtd">
<svg version="1.0" xmlns="http://www.w3.org/2000/svg"
 width="146.000000pt" height="97.000000pt" viewBox="0 0 146.000000 97.000000"
 preserveAspectRatio="xMidYMid meet">

<g transform="translate(0.000000,97.000000) scale(0.100000,-0.100000)"
fill="#000000" stroke="none">
<path d="M0 485 l0 -485 730 0 730 0 0 485 0 485 -730 0 -730 0 0 -485z m220
176 l0 -80 37 16 c100 41 193 -30 193 -148 0 -46 -4 -55 -39 -90 -36 -37 -42
-39 -98 -39 -33 0 -65 5 -72 13 -11 10 -14 10 -18 0 -3 -8 -23 -13 -49 -13
l-44 0 0 210 0 210 45 0 45 0 0 -79z m319 63 c15 -9 38 -32 51 -52 24 -33 25
-45 28 -194 l4 -158 -51 0 -51 0 0 145 c0 132 -2 147 -20 165 -14 14 -20 33
-20 65 0 51 12 57 59 29z m730 -128 c11 -8 15 -8 18 2 3 7 22 12 49 12 l44 0
0 -162 c0 -135 -3 -169 -18 -197 -23 -47 -61 -72 -116 -78 l-46 -6 0 41 c0 37
3 41 30 47 33 7 60 38 60 69 0 18 -1 18 -19 2 -46 -42 -150 -25 -186 30 -37
57 -25 187 20 224 43 35 129 44 164 16z m-339 -9 c96 -50 108 -180 24 -246
-70 -55 -168 -47 -228 19 -46 52 -54 99 -24 158 42 86 140 116 228 69z"/>
<path d="M236 498 c-22 -31 -20 -64 4 -88 41 -41 110 -13 110 44 0 41 -26 66
-68 66 -21 0 -36 -7 -46 -22z"/>
<path d="M1177 502 c-25 -27 -22 -78 5 -96 31 -22 64 -20 88 6 24 26 26 56 4
86 -19 28 -74 30 -97 4z"/>
<path d="M796 498 c-21 -30 -20 -50 5 -82 23 -29 54 -33 87 -10 26 18 30 74 6
98 -24 24 -80 20 -98 -6z"/>
</g>
</svg>
