<?xml version="1.0" standalone="no"?>
<!DOCTYPE svg PUBLIC "-//W3C//DTD SVG 20010904//EN"
 "http://www.w3.org/TR/2001/REC-SVG-20010904/DTD/svg10.dtd">
<svg version="1.0" xmlns="http://www.w3.org/2000/svg"
 width="229.000000pt" height="235.000000pt" viewBox="0 0 229.000000 235.000000"
 preserveAspectRatio="xMidYMid meet">

<g transform="translate(0.000000,235.000000) scale(0.100000,-0.100000)"
fill="#000000" stroke="none">
<path d="M932 1924 c-109 -17 -234 -60 -303 -105 -197 -126 -293 -420 -292
-899 0 -157 3 -197 21 -263 67 -246 224 -360 548 -397 115 -13 463 -13 578 0
391 45 551 208 573 580 6 110 -8 324 -32 475 -62 391 -219 556 -580 610 -125
19 -387 18 -513 -1z m778 -399 c15 -8 38 -27 49 -41 20 -26 21 -38 21 -326 0
-331 -2 -342 -63 -375 -26 -15 -66 -19 -229 -23 l-197 -5 -43 -85 c-24 -46
-49 -86 -56 -88 -8 -2 -29 30 -54 86 l-42 91 -196 3 c-163 2 -200 6 -227 21
-61 33 -63 45 -63 369 0 321 1 326 59 365 l34 23 489 0 c412 0 493 -2 518 -15z"/>
<path d="M747 1333 c-4 -3 -7 -71 -7 -150 l0 -143 53 -1 c128 -2 129 -1 154
23 40 40 31 129 -16 165 -20 15 -76 17 -102 3 -18 -10 -19 -7 -19 50 0 59 0
60 -28 60 -16 0 -32 -3 -35 -7z m148 -177 c30 -45 -20 -91 -64 -59 -23 16 -28
52 -9 71 20 20 56 14 73 -12z"/>
<path d="M990 1307 c0 -20 8 -39 20 -50 18 -15 20 -29 20 -117 l0 -100 35 0
35 0 0 88 c0 109 -12 154 -51 186 -42 36 -59 34 -59 -7z"/>
<path d="M1475 1236 c-37 -16 -55 -52 -55 -110 0 -79 65 -125 131 -92 29 15
30 14 27 -7 -2 -12 -15 -28 -30 -35 -19 -9 -28 -21 -28 -38 0 -36 50 -33 92 5
l33 29 4 127 3 126 -43 -1 c-24 -1 -57 1 -74 4 -17 3 -43 0 -60 -8z m93 -68
c19 -19 14 -55 -9 -72 -43 -30 -93 20 -63 63 17 23 53 28 72 9z"/>
<path d="M1198 1224 c-35 -19 -48 -43 -48 -92 0 -73 69 -122 143 -101 40 11
49 18 70 49 28 41 22 87 -17 126 -28 28 -41 34 -77 34 -24 -1 -56 -7 -71 -16z
m100 -56 c7 -7 12 -21 12 -33 0 -29 -19 -45 -52 -45 -44 0 -60 57 -24 82 17
12 51 9 64 -4z"/>
</g>
</svg>
