<?xml version="1.0" standalone="no"?>
<!DOCTYPE svg PUBLIC "-//W3C//DTD SVG 20010904//EN"
 "http://www.w3.org/TR/2001/REC-SVG-20010904/DTD/svg10.dtd">
<svg version="1.0" xmlns="http://www.w3.org/2000/svg"
 width="512.000000pt" height="512.000000pt" viewBox="0 0 512.000000 512.000000"
 preserveAspectRatio="xMidYMid meet">

<g transform="translate(0.000000,512.000000) scale(0.100000,-0.100000)"
fill="#000000" stroke="none">
<path d="M1729 5060 c-400 -63 -739 -289 -892 -595 -182 -364 -122 -895 126
-1117 l30 -27 -40 -88 c-56 -120 -99 -260 -119 -384 -27 -167 -12 -488 36
-809 87 -574 348 -1699 440 -1893 64 -135 155 -155 210 -47 43 84 55 191 80
670 36 698 89 969 196 1010 35 14 106 -8 142 -43 68 -66 89 -160 142 -635 47
-419 85 -707 106 -812 37 -176 87 -270 136 -255 83 25 123 141 198 570 82 469
120 624 179 717 42 66 69 81 135 76 68 -6 107 -34 134 -96 47 -108 49 -169 22
-742 -14 -306 8 -466 71 -513 56 -41 127 6 191 129 78 149 98 223 343 1259 86
363 160 663 163 666 4 4 40 14 80 24 147 35 311 132 417 247 247 266 303 616
219 1373 -8 77 -18 147 -21 155 -3 10 -73 -55 -221 -207 l-217 -223 -120 25
c-85 18 -152 25 -230 25 -102 0 -129 -4 -311 -47 -18 -4 -43 29 -174 234 -84
131 -154 240 -156 242 -7 8 -39 -26 -74 -81 -76 -117 -139 -318 -160 -516 -19
-170 -8 -411 24 -535 29 -113 97 -263 160 -351 97 -136 263 -267 409 -322 l62
-24 -60 6 c-33 3 -107 16 -165 29 -343 76 -583 243 -717 500 -89 172 -123 329
-123 577 0 177 9 262 47 428 14 63 28 124 30 135 4 18 -7 25 -89 52 -152 51
-247 67 -393 66 -99 -1 -149 -6 -210 -22 -99 -27 -245 -97 -314 -151 -59 -47
-65 -46 -106 24 -55 94 -70 264 -35 400 54 213 243 416 450 486 175 60 479 23
643 -77 32 -19 98 -69 145 -109 93 -79 155 -110 197 -100 93 23 111 171 34
283 -18 27 -83 98 -144 159 -102 102 -121 116 -216 163 -154 75 -237 92 -454
96 -99 2 -205 0 -236 -5z"/>
</g>
</svg>
